<svg xmlns="http://www.w3.org/2000/svg" width="330" height="58.313" viewBox="0 0 330 58.313">
  <g id="Logo_texto" transform="translate(-200 -193)">
    <g id="Group_97" data-name="Group 97" transform="translate(200 193)">
      <path id="Path_101" data-name="Path 101" d="M24.322.672H12.947v2.6H24.322Z" transform="translate(10.519 -0.672)" fill="#fff" fill-rule="evenodd"/>
      <path id="Path_102" data-name="Path 102" d="M47.462,4.6H5.4V7.195H47.462Z" transform="translate(2.711 3.401)" fill="#fff" fill-rule="evenodd"/>
      <path id="Path_103" data-name="Path 103" d="M39.826,2.679H7.89v2.6H39.826Z" transform="translate(5.286 1.405)" fill="#fff" fill-rule="evenodd"/>
      <path id="Path_104" data-name="Path 104" d="M52.65,6.611H3.722V9.206H52.65Z" transform="translate(0.972 5.474)" fill="#fff" fill-rule="evenodd"/>
      <path id="Path_105" data-name="Path 105" d="M12.952,30.646H24.327V28.055H12.952Z" transform="translate(10.525 27.667)" fill="#fff" fill-rule="evenodd"/>
      <path id="Path_106" data-name="Path 106" d="M5.417,26.716H47.479V24.121H5.417Z" transform="translate(2.727 23.595)" fill="#fff" fill-rule="evenodd"/>
      <path id="Path_107" data-name="Path 107" d="M7.9,28.64H39.838V26.047H7.9Z" transform="translate(5.303 25.589)" fill="#fff" fill-rule="evenodd"/>
      <path id="Path_108" data-name="Path 108" d="M3.722,24.715H52.65v-2.6H3.722Z" transform="translate(0.972 21.52)" fill="#fff" fill-rule="evenodd"/>
      <path id="Path_109" data-name="Path 109" d="M6.108,10.333h-2.6v19h2.6Z" transform="translate(0.754 9.326)" fill="#fff" fill-rule="evenodd"/>
      <path id="Path_110" data-name="Path 110" d="M8.2,29.331v-19H5.61v19Z" transform="translate(2.927 9.326)" fill="#fff" fill-rule="evenodd"/>
      <path id="Path_111" data-name="Path 111" d="M10.3,29.331v-19H7.706v19Z" transform="translate(5.096 9.326)" fill="#fff" fill-rule="evenodd"/>
      <path id="Path_112" data-name="Path 112" d="M12.4,29.331v-19H9.8v19Z" transform="translate(7.266 9.326)" fill="#fff" fill-rule="evenodd"/>
      <path id="Path_113" data-name="Path 113" d="M1.415,23.6H4.01V12.2H1.415Z" transform="translate(-1.415 11.26)" fill="#fff" fill-rule="evenodd"/>
      <path id="Path_114" data-name="Path 114" d="M26.7,29.331h2.6v-19H26.7Z" transform="translate(24.754 9.326)" fill="#fff" fill-rule="evenodd"/>
      <path id="Path_115" data-name="Path 115" d="M24.6,10.333v19h2.6v-19Z" transform="translate(22.584 9.326)" fill="#fff" fill-rule="evenodd"/>
      <path id="Path_116" data-name="Path 116" d="M22.509,10.333v19H25.1v-19Z" transform="translate(20.415 9.326)" fill="#fff" fill-rule="evenodd"/>
      <path id="Path_117" data-name="Path 117" d="M20.409,10.333v19h2.6v-19Z" transform="translate(18.242 9.326)" fill="#fff" fill-rule="evenodd"/>
      <path id="Path_118" data-name="Path 118" d="M31.395,12.2H28.8V23.6h2.6Z" transform="translate(26.919 11.26)" fill="#fff" fill-rule="evenodd"/>
    </g>
    <g id="Group_98" data-name="Group 98" transform="translate(269.42 240.962)">
      <path id="Path_119" data-name="Path 119" d="M88.053,26.265H85.176v1.5h2.877Z" transform="translate(15.85 -22.148)" fill="#fff" fill-rule="evenodd"/>
      <path id="Path_120" data-name="Path 120" d="M36.825,25.529h0a4.876,4.876,0,0,0-1.294,3.406c0,2.576,1.575,4.241,4,4.241a5.32,5.32,0,0,0,2.918-.845l.106-.073.025-.5V31.18l-.462.314a4.081,4.081,0,0,1-2.344.729c-1.707,0-2.768-1.323-2.768-3.455a4.31,4.31,0,0,1,.736-2.71,2.512,2.512,0,0,1,2.082-.9,2.87,2.87,0,0,1,1.644.495c-.006.169-.023.694-.023.694l.27.04h.519v-1.8l-.2-.047a8.8,8.8,0,0,0-1.884-.241A4.431,4.431,0,0,0,36.825,25.529Z" transform="translate(-35.528 -24.163)" fill="#fff" fill-rule="evenodd"/>
      <path id="Path_121" data-name="Path 121" d="M43.363,24.538l-.316.853a44.906,44.906,0,0,1-3.107,6.842c-.179,0-.775.023-.775.023l-.037.254v.549l1.514-.047,1.5.047.008-.307v-.488l-.8-.037a11.54,11.54,0,0,1,.59-1.946c.252.014.651.01,1.31,0H43.3s1,.01,1.4.016c.354.861.584,1.479.714,1.927-.248.01-.775.035-.775.035v.8l1.624-.08,1.577.08v-.8s-.659-.035-.853-.043A14.393,14.393,0,0,1,46.2,30.46L45.2,27.953A24.66,24.66,0,0,1,44.041,24.6L44,24.441l-.537-.1Zm-.6,3.828.606-1.4c.268.674.741,1.872.741,1.872s.128.32.236.592c-.342,0-.78.012-.78.012h-.241s-.6-.021-1.006-.031Z" transform="translate(-31.804 -24.139)" fill="#fff" fill-rule="evenodd"/>
      <path id="Path_122" data-name="Path 122" d="M43.62,27.02c0,1.121.676,1.823,2.126,2.213l.529.132a2.354,2.354,0,0,1,1.368.611,1.193,1.193,0,0,1,.241.78,1.61,1.61,0,0,1-.4,1.152,1.484,1.484,0,0,1-1.105.409,4.168,4.168,0,0,1-1.917-.58c-.014-.2-.059-.842-.059-.842l-.248-.034h-.547l.031.9-.053,1.1.254.047a13.375,13.375,0,0,0,2.374.279,2.716,2.716,0,0,0,2.967-2.762,2.023,2.023,0,0,0-.957-1.784,5.148,5.148,0,0,0-1.483-.507l-.431-.108c-.908-.234-1.328-.69-1.328-1.439a1.32,1.32,0,0,1,1.459-1.416,2.625,2.625,0,0,1,1.444.462c0,.138,0,.582,0,.582l.262.04h.563v-.562l.033-1.062-.2-.053a7.233,7.233,0,0,0-1.787-.27C44.9,24.31,43.62,25.425,43.62,27.02Z" transform="translate(-27.19 -24.175)" fill="#fff" fill-rule="evenodd"/>
      <path id="Path_123" data-name="Path 123" d="M50.348,24.546l-.059.157-.252.694a44.548,44.548,0,0,1-3.105,6.842c-.177,0-.775.023-.775.023l-.04.254v.549l1.5-.047,1.518.047v-.8l-.8-.037a14.768,14.768,0,0,1,.583-1.943c.262.012.678.008,1.368,0,.008,0,1.011.01,1.414.016a.545.545,0,0,0,.021.053c.322.814.543,1.4.684,1.878-.246.006-.759.031-.759.031v.8l1.6-.08,1.57.08,0-.8s-.657-.035-.845-.043a12.487,12.487,0,0,1-.812-1.846l-.966-2.424a25.181,25.181,0,0,1-1.156-3.352L51,24.445l-.551-.1Zm.016,2.421c.256.649.845,2.139.973,2.464-.344,0-.782.012-.782.012h-.236s-.6-.021-1.009-.031c.2-.462.77-1.788,1.055-2.446Z" transform="translate(-24.567 -24.143)" fill="#fff" fill-rule="evenodd"/>
      <path id="Path_124" data-name="Path 124" d="M54.262,24.411h0l-1.207.04-1.091-.04-.37-.023v.81s.623.021.871.027c0,.121.01.236.01.236l.067,2.631v1.489c0,.975-.04,1.811-.108,2.511-.234,0-.8,0-.8,0l-.04.258v.551l1.129-.031,1.215.037.885.029a6.7,6.7,0,0,0,1.355-.132,4.114,4.114,0,0,0,3.64-4.2,3.944,3.944,0,0,0-3.657-4.157c-.025,0-1.009-.061-1.009-.061Zm-.21.822a7.7,7.7,0,0,1,1.988.25,3.109,3.109,0,0,1,2.43,3.3,2.953,2.953,0,0,1-2.419,3.176,4.978,4.978,0,0,1-1.243.132l-.952-.029c-.043-.6-.063-1.4-.063-2.487V28.092s.053-2.143.073-2.857Z" transform="translate(-18.906 -24.091)" fill="#fff" fill-rule="evenodd"/>
      <path id="Path_125" data-name="Path 125" d="M55.555,24.656V25.2s.633.012.885.021c.006.14.01.282.01.282l.067,3.136c0,1.7-.059,2.822-.106,3.453h-.82l-.037.26v.547l2.985-.027,3,.027V30.94h-.674s-.116.58-.151.759a6.524,6.524,0,0,1-2.4.33s-.254-.006-.464-.016c-.008-.383-.045-2.616-.055-3.046a7.665,7.665,0,0,1,1.593.167c.016.216.057.794.057.794l.246.037h.517v-2.69h-.7s-.089.5-.128.7a10.472,10.472,0,0,1-1.587.151c.021-1.284.051-2.206.1-2.853a2.667,2.667,0,0,0,.651-.029l-.114.029a6.224,6.224,0,0,1,2.181.279c.027.157.112.58.112.58l.678.1.035-.3V24.4l-2.938.021L55.557,24.4v.254Z" transform="translate(-14.805 -24.072)" fill="#fff" fill-rule="evenodd"/>
      <path id="Path_126" data-name="Path 126" d="M61.15,25.53a4.784,4.784,0,0,0-1.331,3.406,3.882,3.882,0,0,0,4.035,4.241,5.272,5.272,0,0,0,2.892-.845l.11-.071.025-.5v-.563l-.46.305a4.044,4.044,0,0,1-2.338.73c-1.7,0-2.757-1.323-2.757-3.455a4.3,4.3,0,0,1,.736-2.71,2.481,2.481,0,0,1,2.067-.9,2.8,2.8,0,0,1,1.638.493c0,.171-.021.7-.021.7l.264.04h.527v-1.8l-.206-.047a8.634,8.634,0,0,0-1.878-.241A4.371,4.371,0,0,0,61.15,25.53Z" transform="translate(-10.389 -24.164)" fill="#fff" fill-rule="evenodd"/>
      <path id="Path_127" data-name="Path 127" d="M67.587,24.542l-.124.332-.193.517a43.348,43.348,0,0,1-3.083,6.846c-.181,0-.8.023-.8.023l-.037.254v.551l.372-.016,1.148-.037,1.087.033.435.021v-.8l-.82-.037a13.678,13.678,0,0,1,.586-1.943c.262.012.668.008,1.355,0,.006,0,1.027.01,1.437.016.348.885.568,1.491.694,1.927-.241.01-.755.035-.755.035v.8l1.6-.08,1.579.08,0-.311v-.487s-.661-.035-.857-.043c-.258-.493-.5-1.087-.761-1.726L69.437,27.95l-.08-.208A23.346,23.346,0,0,1,68.288,24.6l-.037-.167-.567-.1Zm.008,2.411c.252.629.855,2.126,1,2.477-.35,0-.8.012-.8.012h-.244s-.594-.021-1.006-.031c.2-.462.772-1.807,1.054-2.459Z" transform="translate(-6.739 -24.14)" fill="#fff" fill-rule="evenodd"/>
      <path id="Path_128" data-name="Path 128" d="M69.723,24.6v.04a53.357,53.357,0,0,1-1.24,7.6l-.712.01-.04.258v.543l1.357-.027,1.38.027v-.79l-.71-.04c0-.121-.021-.734-.021-.734a33.1,33.1,0,0,1,.54-4.237c.934,1.815,2.025,3.716,3.1,5.525l.057.1.395.075.092-.161c1.133-2.012,2.037-3.718,2.806-5.309.389,2.5.58,3.94.631,4.741-.228.012-.761.037-.761.037v.792l1.489-.027,1.459.027,0-.79-.82-.043a42.187,42.187,0,0,1-.922-7.445v-.4h-.667l-.073.191A51.112,51.112,0,0,1,73.9,31.045a41.271,41.271,0,0,1-3.415-6.475l-.055-.153-.644-.077Z" transform="translate(-2.195 -24.134)" fill="#fff" fill-rule="evenodd"/>
      <path id="Path_129" data-name="Path 129" d="M75.912,24.4h0l-1.266.037H73.7v.8l.865.019c.008.126.01.248.01.248l.071,3.174c0,1.555-.035,2.7-.106,3.449l-.8.008-.037.258v.545l1.107-.029,1.223.04.649.025h.3c1.821-.085,2.943-1.058,2.943-2.531a2.014,2.014,0,0,0-1.61-2.057,2.173,2.173,0,0,0,1.14-1.838c0-1.264-.942-2.082-2.462-2.141l-.254-.023Zm.366.84.663.059a1.237,1.237,0,0,1,1.066,1.4,1.213,1.213,0,0,1-1.1,1.349l-.838.059h-.134c0-1.091.031-2.063.085-2.857.128-.008.258-.01.258-.01Zm-.2,3.706.867.063c1.064.138,1.485.568,1.485,1.526a1.415,1.415,0,0,1-1.483,1.593l-.282.016s-.389-.027-.649-.043c-.04-.631-.08-1.64-.083-3.148a1.391,1.391,0,0,1,.147-.008Z" transform="translate(3.972 -24.101)" fill="#fff" fill-rule="evenodd"/>
      <path id="Path_130" data-name="Path 130" d="M77.071,24.7v.5s.621.01.869.021c.035.541.092,1.65.092,3.419,0,1.567-.049,2.694-.1,3.429-.246.012-.865.037-.865.037v.8l1.618-.031,1.626.031v-.8s-.644-.025-.91-.037c0-.187,0-.387,0-.387l-.049-3.04c0-1.65.049-2.782.085-3.419.248-.008.879-.021.879-.021v-.8l-1.63.025L77.073,24.4v.3Z" transform="translate(7.462 -24.076)" fill="#fff" fill-rule="evenodd"/>
      <path id="Path_131" data-name="Path 131" d="M79.957,25.695h0a4.2,4.2,0,0,0-1.146,3.031A4.389,4.389,0,0,0,80.156,32a4.575,4.575,0,0,0,3.381,1.167,4.709,4.709,0,0,0,3.6-1.409,4.244,4.244,0,0,0,1.156-3.032,4.4,4.4,0,0,0-1.376-3.268A4.478,4.478,0,0,0,83.534,24.3,4.789,4.789,0,0,0,79.957,25.695Zm.328,2.847c0-2.133,1.184-3.406,3.172-3.406h.08c2.007.035,3.26,1.483,3.26,3.777a3.1,3.1,0,0,1-3.174,3.435h-.083c-1.975-.037-3.255-1.53-3.255-3.806Z" transform="translate(9.271 -24.166)" fill="#fff" fill-rule="evenodd"/>
      <path id="Path_132" data-name="Path 132" d="M91.235,24.354l-1.3.035-1.618-.04-.006.3v.5s.617.029.869.037c.01.421.087,3.5.087,3.5,0,1.616-.029,2.745-.077,3.471-.241,0-.84-.008-.84-.008l-.04.262v.555l3.067-.033,2.953.035,0-.3V30.947h-.711s-.1.592-.136.788a7.1,7.1,0,0,1-2.464.391s-.2-.012-.372-.019c-.014-.4-.08-3.148-.08-3.148,0-1.919.047-3.158.1-3.791H91.5l.037-.262v-.558Z" transform="translate(19.094 -24.132)" fill="#fff" fill-rule="evenodd"/>
      <path id="Path_133" data-name="Path 133" d="M91.6,24.654v.5l.906.04c.043.82.081,2.084.081,3.484,0,1.793-.067,2.926-.108,3.482-.241,0-.842-.008-.842-.008l-.037.262v.56l1.642-.037,1.65.037,0-.3v-.51s-.657-.025-.914-.031c-.047-.724-.071-1.866-.071-3.455,0-1.481.04-2.747.1-3.51h.845l.04-.262v-.555l-1.664.04-1.628-.04Z" transform="translate(22.494 -24.135)" fill="#fff" fill-rule="evenodd"/>
      <path id="Path_134" data-name="Path 134" d="M93.642,24.635v.509s.637.027.893.035c.008.4.053,2.914.053,2.914V29.61c0,1.079-.029,1.891-.077,2.531l-.834-.006-.037.264v.563l1.129-.04,1.252.049.883.043a8.887,8.887,0,0,0,1.392-.132A4.2,4.2,0,0,0,102,28.595,3.972,3.972,0,0,0,98.3,24.4l-.157-.014-.885-.051-2.112.061-1.5-.075v.313Zm2.487.555a7.822,7.822,0,0,1,2.043.244,3.15,3.15,0,0,1,2.436,3.36,3.029,3.029,0,0,1-2.428,3.22,5.264,5.264,0,0,1-1.264.151s-.942-.04-.961-.043a21.888,21.888,0,0,1-.106-2.515V28.09c0-1.475.061-2.419.108-2.9.081,0,.171,0,.171,0Z" transform="translate(24.609 -24.151)" fill="#fff" fill-rule="evenodd"/>
      <path id="Path_135" data-name="Path 135" d="M97.811,24.648v.5s.621.029.871.037v.067c.04.694.108,1.858.108,3.419,0,1.793-.069,2.924-.108,3.482-.238,0-.834-.008-.834-.008l-.037.262v.557l3.018-.035,3.018.035V31h-.656s-.116.6-.148.78a6.447,6.447,0,0,1-2.438.34s-.266-.014-.474-.023c0-.161-.012-.332-.012-.332s-.053-2.332-.065-2.784a8.859,8.859,0,0,1,1.644.167c.018.214.061.8.061.8l.246.035h.513V27.271h-.7s-.1.527-.128.724a9.561,9.561,0,0,1-1.634.144c.006-.121.006-.244.006-.244s.075-1.982.1-2.67h.533a6.512,6.512,0,0,1,2.246.293c.031.157.112.568.112.568l.678.106.037-.3V24.351l-3.005.035-2.947-.035Z" transform="translate(28.926 -24.129)" fill="#fff" fill-rule="evenodd"/>
      <path id="Path_136" data-name="Path 136" d="M104.384,24.343l-.644.025-1.337.049-1.3-.049,0,.309v.507s.641.027.9.04c.045.728.092,1.943.092,3.482,0,1.827-.067,2.906-.124,3.482-.238,0-.828,0-.828,0l-.04.262V33l1.665-.035,1.664.035v-.808l-.975-.033c-.035-.523-.065-1.455-.071-3.011.246.256.537.584.9,1.017l.216.271,1.9,2.5.063.029c.065.031.083.04.826.012l.075,0,1.091.04,0-.309V32.2l-.724-.04a10.635,10.635,0,0,1-1.188-1.256l-1.771-2.153c1.427-.236,2.273-1.038,2.273-2.224,0-.971-.437-2.133-2.529-2.181h-.132Zm-.7.851-.121.04.592-.037.326.033a1.186,1.186,0,0,1,1.2,1.38c0,.784-.374,1.19-1.213,1.328l-.734.063-.346-.023c.006-1.174.04-2.059.1-2.745A.531.531,0,0,0,103.682,25.193Z" transform="translate(32.336 -24.141)" fill="#fff" fill-rule="evenodd"/>
      <path id="Path_137" data-name="Path 137" d="M106.19,24.649v.5s.615.031.863.04c0,.146.01.295.01.295l.071,3.191c0,1.7-.061,2.839-.108,3.482-.234,0-.8-.008-.8-.008l-.04.262v.557l3-.035,3.042.035V31h-.749s-.053.592-.073.788a6.743,6.743,0,0,1-2.448.332l-.468-.023c0-.383-.047-2.68-.055-3.115a8.845,8.845,0,0,1,1.638.169c.016.216.059.757.059.757l.7.124.043-.309V27.271H110.2s-.1.529-.13.724a9.622,9.622,0,0,1-1.63.142c.021-1.034.051-2.118.1-2.914h.541a6.428,6.428,0,0,1,2.222.291c.021.157.075.57.075.57l.73.1.04-.295V24.35l-3.012.035-2.947-.035v.3Z" transform="translate(37.593 -24.13)" fill="#fff" fill-rule="evenodd"/>
      <path id="Path_138" data-name="Path 138" d="M110.339,24.538l.08,2.224v1.9a26.009,26.009,0,0,1-.21,3.506c-.214,0-.753,0-.753,0l-.035.258v.574L111,32.95h1.365v-.777l-.93-.033a20.308,20.308,0,0,1-.185-3.354V27.029c1.353,1.7,3.26,3.71,5.6,6.147l.092.1.509-.065-.087-2.015V28.685a21.682,21.682,0,0,1,.2-3.514c.212-.008.757-.033.757-.033l.04-.25v-.529l-1.577.037-1.372-.037v.814l.926.029a21.365,21.365,0,0,1,.179,3.329v2.324a39.341,39.341,0,0,1-5.466-6.453l-.071-.106-.621-.053Z" transform="translate(40.939 -24.241)" fill="#fff" fill-rule="evenodd"/>
      <path id="Path_139" data-name="Path 139" d="M118.242,24.354l-1.3.035-1.654-.04v.8l.9.04c.006.157.008.311.008.311l.073,3.172c0,1.681-.065,2.835-.11,3.482-.241,0-.834-.008-.834-.008l-.037.262v.555l3.059-.033,2.953.035,0-.3V30.947h-.761s-.055.588-.077.792a7.176,7.176,0,0,1-2.475.387s-.2-.012-.37-.019c0-.1-.063-3.156-.063-3.156,0-1.909.053-3.148.108-3.783h.85l.035-.262v-.558Z" transform="translate(47.005 -24.132)" fill="#fff" fill-rule="evenodd"/>
      <path id="Path_140" data-name="Path 140" d="M122.642,24.506l-.063.171-.258.665a43.578,43.578,0,0,1-3.156,6.947c-.175.008-.771.047-.771.047l-.04.246v.523l1.516-.027,1.526.027v-.765s-.545-.04-.8-.055a13.431,13.431,0,0,1,.6-1.992l1.4.021h1.418a20.6,20.6,0,0,1,.726,1.972c-.241.019-.759.053-.759.053v.782l.682-.043.926-.04.95.04.667.043v-.776l-.859-.071a10.311,10.311,0,0,1-.83-1.88l-.989-2.455a27.907,27.907,0,0,1-1.2-3.376l-.04-.161-.539-.1Zm-.413,3.39s.224-.523.417-.973c.271.69.767,1.945.767,1.945s.128.313.234.58l-.808.021H122.6l-.637-.031h0l-.378-.019c.193-.456.649-1.524.649-1.524Z" transform="translate(50.181 -24.192)" fill="#fff" fill-rule="evenodd"/>
      <path id="Path_141" data-name="Path 141" d="M128.763,24.338l-.684.021-2.194.045-2.389-.04-1.433-.037v1.841h.658s.13-.476.177-.644a6.769,6.769,0,0,1,1.886-.256c.055.736.087,1.929.087,3.455,0,1.485-.033,2.694-.094,3.479-.234,0-.816,0-.816,0l-.04.262v.555l1.614-.033,1.626.033v-.806s-.617-.023-.865-.035c-.006-.083-.008-.173-.008-.173l-.075-3.28c0-1.529.04-2.755.11-3.486a7.337,7.337,0,0,1,1.911.305c.025.159.075.56.075.56l.72.1.04-.3V24.328Z" transform="translate(54.027 -24.148)" fill="#fff" fill-rule="evenodd"/>
      <path id="Path_142" data-name="Path 142" d="M128.736,24.354l-1.331.035-1.63-.04,0,.3v.5s.631.029.881.037c0,.073.008.159.008.159l.1,3.337c0,1.65-.061,2.8-.108,3.445-.248.01-.881.031-.881.031l0,.81,1.644-.037,1.622.037,0-.3v-.508s-.651-.025-.905-.031c-.02-.539-.055-1.567-.055-3.455,0-1.817.029-2.9.08-3.51h.845l.037-.262v-.558Z" transform="translate(57.864 -24.132)" fill="#fff" fill-rule="evenodd"/>
      <path id="Path_143" data-name="Path 143" d="M128.5,24.592c.063.67.094,1.4.094,2.161v1.909a27.03,27.03,0,0,1-.185,3.506c-.222,0-.782,0-.782,0l-.04.258v.572l1.6-.043h1.333v-.778l-.92-.033a24.324,24.324,0,0,1-.155-3.354V27.035c1.331,1.671,3.2,3.673,5.614,6.145l.09.1.379-.053.067-.1c.025-.043.043-.071.043-.3s-.021-.7-.071-1.642v-2.5a24.1,24.1,0,0,1,.183-3.514l.765-.031.04-.252v-.531l-1.57.037-1.386-.037v.814l.934.029a21.779,21.779,0,0,1,.159,3.329v2.324a38.621,38.621,0,0,1-5.48-6.453l-.071-.1-.625-.057Z" transform="translate(59.737 -24.241)" fill="#fff" fill-rule="evenodd"/>
      <path id="Path_144" data-name="Path 144" d="M132.985,25.648a4.355,4.355,0,0,0-1.187,3.095,4.431,4.431,0,0,0,1.4,3.292,4.535,4.535,0,0,0,3.41,1.194,4.779,4.779,0,0,0,3.636-1.42,4.27,4.27,0,0,0,1.146-3.067,4.332,4.332,0,0,0-1.366-3.327,4.524,4.524,0,0,0-3.419-1.15A4.773,4.773,0,0,0,132.985,25.648Zm.328,2.871a3.617,3.617,0,0,1,.859-2.535,3.126,3.126,0,0,1,2.358-.91h.077c2.037.037,3.3,1.5,3.3,3.823a3.719,3.719,0,0,1-.875,2.584,3.1,3.1,0,0,1-2.346.926h-.083c-2.032-.055-3.295-1.543-3.295-3.889Z" transform="translate(64.104 -24.217)" fill="#fff" fill-rule="evenodd"/>
      <path id="Path_145" data-name="Path 145" d="M140.325,24.506l-.289.845a48.346,48.346,0,0,1-3.152,6.929l-.8.049-.037.246V33.1l1.51-.025,1.555.027v-.765s-.555-.04-.818-.055a12.078,12.078,0,0,1,.586-1.992l1.39.021h1.449c.02.051.043.108.043.108.254.672.513,1.351.665,1.866-.244.019-.765.053-.765.053v.782l.653-.043.985-.04.891.04.692.043v-.778l-.859-.071a11.875,11.875,0,0,1-.714-1.587l-.121-.3-.991-2.448a25.327,25.327,0,0,1-1.162-3.37l-.04-.175-.581-.089Zm-.623,3.907s.4-.91.657-1.489l.849,2.208s.065.153.126.309l-.784.021h-.23l-.655-.031-.4-.019c.161-.379.433-1,.433-1Z" transform="translate(68.495 -24.187)" fill="#fff" fill-rule="evenodd"/>
      <path id="Path_146" data-name="Path 146" d="M142.745,24.558l0,.037a52.2,52.2,0,0,1-1.274,7.687l-.688,0-.04.26v.56l1.361-.029,1.368.029,0-.3v-.508l-.7-.029c-.006-.175-.029-.747-.029-.747a31.313,31.313,0,0,1,.537-4.292c.857,1.622,1.9,3.453,3.189,5.6l.061.1.389.075.091-.161c1.156-2.007,2.1-3.874,2.839-5.4.395,2.535.592,4.011.641,4.825l-.765.027v.81l1.5-.027,1.475.027,0-.808s-.6-.021-.818-.031a42.672,42.672,0,0,1-.936-7.543v-.393h-.694l-.075.2a53.207,53.207,0,0,1-3.189,6.573,41.87,41.87,0,0,1-3.482-6.573l-.051-.148-.649-.073Z" transform="translate(73.349 -24.182)" fill="#fff" fill-rule="evenodd"/>
      <path id="Path_147" data-name="Path 147" d="M146.927,24.648v.5l.91.04c0,.165.01.33.01.33l.067,3.154c0,1.69-.063,2.839-.1,3.482-.248,0-.849-.008-.849-.008l-.037.262v.557l3.04-.035,3.011.035V31h-.669s-.106.6-.138.778a6.439,6.439,0,0,1-2.432.342l-.47-.023c-.008-.385-.043-2.68-.053-3.115a8.587,8.587,0,0,1,1.6.165c.016.216.065.769.065.769l.741.1.04-.3V27.27h-.714l-.136.724a9.338,9.338,0,0,1-1.6.142c0-1.213.031-2.188.073-2.914h.551a6.213,6.213,0,0,1,2.22.291c.037.155.124.572.124.572l.68.1.04-.3V24.351l-3.007.035-2.965-.035Z" transform="translate(79.756 -24.129)" fill="#fff" fill-rule="evenodd"/>
      <path id="Path_148" data-name="Path 148" d="M153.444,24.343l-.623.025-1.341.049-1.272-.049v.816s.623.027.877.04c0,.14.008.285.008.285l.067,3.2c0,1.811-.061,2.932-.1,3.486-.232,0-.814-.008-.814-.008l-.035.262V33l1.638-.035,1.685.035,0-.808-1.009-.033c-.037-.667-.061-1.66-.065-3.016.236.25.523.57.891,1.017.58.69,1.252,1.551,2.122,2.714l.043.055.061.029a4.252,4.252,0,0,0,.981-.008l-.1.016,1.07.04,0-.309v-.5l-.726-.04a10.067,10.067,0,0,1-1.17-1.252s-1.722-2.073-1.789-2.157c1.435-.236,2.291-1.038,2.291-2.224,0-.971-.439-2.133-2.548-2.181h-.147Zm-.224.855.322.033a1.186,1.186,0,0,1,1.207,1.38c0,.784-.378,1.19-1.221,1.328.043,0-.737.063-.741.063l-.332-.023c0-1.223.037-2.088.1-2.741a.508.508,0,0,0,.136-.012l-.006,0Z" transform="translate(83.151 -24.141)" fill="#fff" fill-rule="evenodd"/>
      <path id="Path_149" data-name="Path 149" d="M156.972,24.354l-1.328.035-1.628-.04,0,.3v.5l.91.04c.008.179.014.368.014.368L155,28.68c0,1.539-.059,2.69-.108,3.455-.25.01-.883.031-.883.031l0,.81,1.644-.037,1.622.037v-.811s-.637-.021-.9-.031c-.008-.423-.057-3.455-.057-3.455,0-1.728.051-2.869.083-3.486.252-.008.871-.037.871-.037v-.808Z" transform="translate(87.091 -24.132)" fill="#fff" fill-rule="evenodd"/>
      <path id="Path_150" data-name="Path 150" d="M157,25.521a4.837,4.837,0,0,0-1.328,3.443c0,2.609,1.6,4.294,4.072,4.294a5.3,5.3,0,0,0,2.953-.871l.112-.075.023-.476v-.563l-.464.3a4.272,4.272,0,0,1-2.374.743c-1.724,0-2.8-1.347-2.8-3.519,0-1.667.491-3.653,2.837-3.653a2.892,2.892,0,0,1,1.681.483c-.006.173-.021.708-.021.708l.266.04h.527V24.543l-.208-.047a8.642,8.642,0,0,0-1.9-.241A4.4,4.4,0,0,0,157,25.521Z" transform="translate(88.804 -24.231)" fill="#fff" fill-rule="evenodd"/>
      <path id="Path_151" data-name="Path 151" d="M163.551,24.5l-.318.845a42.8,42.8,0,0,1-3.152,6.943l-.8.047-.04.248v.523l1.551-.027,1.524.027.008-.765s-.555-.04-.816-.055a13.5,13.5,0,0,1,.6-1.992l1.368.021h1.443c.352.867.592,1.506.741,1.972-.266.016-.81.053-.81.053v.782l.668-.043.987-.04.973.043.609.04v-.779l-.861-.071c-.282-.529-.555-1.18-.845-1.886l-.952-2.446a28.643,28.643,0,0,1-1.188-3.381l-.043-.161-.541-.1Zm0,2.421.767,1.923s.128.328.234.6l-.8.021h-.241s-.851-.04-1.044-.047C162.663,28.963,163.264,27.585,163.551,26.924Z" transform="translate(92.496 -24.193)" fill="#fff" fill-rule="evenodd"/>
    </g>
    <path id="Path_152" data-name="Path 152" d="M35.928,21.815v.96H295.21v-.96Z" transform="translate(234.302 214.209)" fill="#fff" fill-rule="evenodd"/>
    <g id="Group_99" data-name="Group 99" transform="translate(268.936 199.372)">
      <path id="Path_153" data-name="Path 153" d="M84.015,8.291a17.014,17.014,0,0,0-4.789,12.25c0,9.145,5.854,15.29,14.566,15.29a18.781,18.781,0,0,0,10.388-3.051l.617-.4V30.46l-.033-1.481a21.525,21.525,0,0,1-10.177,2.863c-5.889,0-9.407-4.436-9.407-11.864,0-5.674,1.658-12.443,9.56-12.443a9.613,9.613,0,0,1,5.419,1.532v2.806h3.417V4.781l-1.129-.206a36.927,36.927,0,0,0-6.551-.73C90.826,3.845,87.053,5.259,84.015,8.291Z" transform="translate(10.17 -3.76)" fill="#fff"/>
      <path id="Path_154" data-name="Path 154" d="M109.114,4.021h-1.471l-.832,2.245-.574,1.543C101.3,21.072,97.507,29.385,95.491,32.8l-3.1.165v.966L92.331,35.3l5.715-.136,4.039.126,1.74.014-.057-1.376v-.975l-2.83-.126a57.6,57.6,0,0,1,1.9-7.24c1.28-.016,4.6-.053,4.6-.053.063,0,3.176.04,4.737.053a76.484,76.484,0,0,1,2.33,7.324c-.61.027-2.562.121-2.562.121v.893l-.043,1.368c1.626-.149,4.621-.222,5.985-.222,1.388,0,4.505.075,6.007.222l-.075-1.368v-.889s-2.312-.124-3.067-.161c-.93-1.69-1.756-4.8-2.611-6.929L114.5,16.841c.006.01-.252-.644-.252-.644a80.695,80.695,0,0,1-3.789-11.1l-.242-1.073h-1.1ZM107.679,14.3c1.119,2.784,2.271,5.641,3.042,7.566-.018,0-2.32.043-2.32.043h-.885s-1.8-.045-3.067-.08C105.3,19.851,106.589,16.839,107.679,14.3Z" transform="translate(23.734 -3.578)" fill="#fff"/>
      <path id="Path_155" data-name="Path 155" d="M143.21,4.02h-1.526l-.334.891a178.817,178.817,0,0,1-10.869,22.357C124.07,16.576,120.4,9.6,118.738,4.934l-.322-.914h-2.886l-.126,1.24a207.471,207.471,0,0,1-4.29,27.667c-.7.04-2.725.149-2.725.149v.849l-.083,1.374,5.171-.069,5.3.069-.1-1.374v-.845s-1.876-.106-2.458-.136c-.051-1.017-.112-3.425-.112-3.425,0-2.666.619-7.23,1.7-13.935,3.176,6.07,6.888,12.476,10.529,18.605l.395.676h1.815l.395-.708c3.8-6.848,6.811-12.575,9.342-17.738,1.213,7.816,1.848,13.738,2.052,16.521l-2.67.132v.851l-.063,1.374,5.631-.069,5.563.069-.08-1.374v-.851s-2.1-.11-2.845-.146c-2.151-10.533-3.294-20.683-3.294-27.154V4.02Z" transform="translate(40.271 -3.577)" fill="#fff"/>
      <path id="Path_156" data-name="Path 156" d="M137.735,4.173l-4.416.121h-3.7V6.749l3,.073c.14,1.935.328,6.607.328,12.753,0,5.228-.118,10.048-.332,12.7-.822.037-2.993.138-2.993.138v1.127l.069,1.372,4.127-.069,4.3.128,2.356.087H141.5c6.634-.318,10.712-3.87,10.712-9.275a7.325,7.325,0,0,0-5.063-7.429,7.719,7.719,0,0,0,3.4-6.318c0-4.621-3.443-7.643-8.99-7.877l.3.047-1.3-.128Zm1.284,2.611a11.076,11.076,0,0,1,2.2.191c2.491.517,3.6,2.94,3.6,5.645,0,2.6-1.079,3.925-3.6,4.444a17.8,17.8,0,0,1-2.839.189h-.224c.021-3.61.11-7.816.273-10.445.264-.012.586-.023.586-.023Zm-.706,14.086a19.961,19.961,0,0,1,2.981.206c3.724.486,5.039,1.819,5.039,5.085,0,3.313-1.616,5.958-4.931,6.2l.1,0-.672.045-.346.031s-1.109-.069-2.052-.13c-.13-2.2-.254-6.5-.275-11.422C138.213,20.878,138.313,20.87,138.313,20.87Z" transform="translate(62.331 -3.494)" fill="#fff"/>
      <path id="Path_157" data-name="Path 157" d="M149.2,4.218l-2.3.037-6.037-.071.021,1.376V6.636s2.236.055,3.081.073c.13,2.047.312,6.854.312,12.751,0,5.376-.161,10.166-.322,12.743-.853.043-3.069.136-3.069.136v1.093L140.9,34.8l6-.08,6.077.08V32.336s-2.257-.1-3.134-.134c-.121-2.061-.262-6.685-.262-12.743,0-5.494.146-10.413.273-12.749l3.124-.075V5.558l-.04-1.376Z" transform="translate(73.967 -3.413)" fill="#fff"/>
      <path id="Path_158" data-name="Path 158" d="M150.811,8.854l0,0a15.36,15.36,0,0,0-4.127,10.94,15.816,15.816,0,0,0,4.839,11.784c3.1,2.918,6.85,4.214,12.15,4.214,5.447,0,9.8-1.707,12.94-5.081A15.294,15.294,0,0,0,180.783,19.8a15.842,15.842,0,0,0-4.95-11.784c-3-2.871-6.754-4.157-12.163-4.157C158.371,3.854,153.924,5.584,150.811,8.854Zm1.713,10.274c0-7.334,4.065-11.711,10.866-11.711h.282c6.99.134,11.178,5.008,11.178,13.035,0,7.277-4.17,11.8-10.878,11.8h-.3c-6.866-.146-11.148-5.172-11.148-13.123Z" transform="translate(79.986 -3.747)" fill="#fff"/>
      <path id="Path_159" data-name="Path 159" d="M68.54,5.313V6.406l3.162.126c.144,1.992.358,7.031.358,13.274,0,5.746-.2,9.779-.366,12.144l-3.154.116v2.1l-.071,1.376,11.377-.1,11.015.1L90.8,34.17v-6.5H87.5s-.216,2.143-.291,2.881A24.2,24.2,0,0,1,78.576,31.9s-.489-.027-.971-.047c-.183-4.2-.282-7.928-.282-11.039,0-6.483.165-11.9.346-14.287l3.225-.124V5.313l.065-1.368c-1.479.118-4.6.118-6.129.118-1.62,0-4.662,0-6.32-.118Z" transform="translate(-0.959 -3.661)" fill="#fff"/>
      <path id="Path_160" data-name="Path 160" d="M69.206,3.8h-1.39l-.68,1.835-.761,1.929-.035.08C61.078,21.682,57.19,29.814,55.155,33.187l-3.073.268v1.131l-.061,1.372,5.783-.1,5.946.1-.121-1.374V33.436l-2.877-.2a58.953,58.953,0,0,1,2.015-7.3h9.688a75.888,75.888,0,0,1,2.523,7.24c-.7.047-2.674.191-2.674.191V34.59l-.061,1.374,2.578-.069,3.545-.155,3.8.161,2.411.061L84.5,34.588V33.377l-3.156-.268a42.025,42.025,0,0,1-2.926-7.289l-3.555-8.85A96.275,96.275,0,0,1,70.541,4.848L70.283,3.8ZM66.52,17.191s.637-1.5,1.272-2.983c1.04,2.635,2.3,5.818,2.3,5.818s.437,1.1.867,2.177l-2.421.053h-.909l-2.275-.1-.932-.045C65.244,20.187,66.52,17.191,66.52,17.191Z" transform="translate(-17.979 -3.8)" fill="#fff"/>
      <path id="Path_161" data-name="Path 161" d="M42.089,5.259V11.09h3.059l.517-2.374a23.456,23.456,0,0,1,6.249-.9c.189,2.67.295,6.894.295,12.163,0,5.124-.116,10.236-.318,13.068l-3.117.114v1.176L48.7,35.716l6.16-.094,6.229.094-.053-1.376V33.166s-2.218-.08-3.059-.114c-.169-2.106-.362-6.813-.362-13.068,0-5.087.128-9.468.346-12.165a23.921,23.921,0,0,1,6.312.891c.1.592.389,2.379.389,2.379h3.244V5.259l.027-1.374L64.7,3.938l-8.554.172-9.307-.151-4.808-.075Z" transform="translate(-28.323 -3.719)" fill="#fff"/>
      <path id="Path_162" data-name="Path 162" d="M41.511,4.06c-1.555,0-4.66,0-6.219-.118l.027,1.368V6.425s2.285.087,3.176.124c0,.006,0,.063,0,.063.149,2.656.37,7.676.37,13.19,0,5.667-.193,10.745-.35,13.151-.9.035-3.2.118-3.2.118v1.095l0,1.475,6.188-.1,6.16.1.01-1.475V33.072s-2.3-.083-3.189-.118c-.173-2.421-.254-7.264-.254-13.151,0-6.127.077-11,.248-13.255.893-.037,3.2-.126,3.2-.126V5.312l-.014-1.368C46.091,4.06,43.116,4.06,41.511,4.06Z" transform="translate(-35.292 -3.659)" fill="#fff"/>
    </g>
  </g>
</svg>
