<svg xmlns="http://www.w3.org/2000/svg" width="328.734" height="328.713" viewBox="0 0 328.734 328.713">
  <g id="icon_Italcambio" transform="translate(0 -0.002)">
    <path id="Path_83" data-name="Path 83" d="M76.2,0H12.072V14.652H76.2Z" transform="translate(120.211 0)" fill="#171796" fill-rule="evenodd"/>
    <path id="Path_84" data-name="Path 84" d="M241.3,4.118H4.172V18.747H241.3Z" transform="translate(41.544 40.996)" fill="#171796" fill-rule="evenodd"/>
    <path id="Path_85" data-name="Path 85" d="M186.8,2.1H6.778v14.64H186.8Z" transform="translate(67.494 20.921)" fill="#171796" fill-rule="evenodd"/>
    <path id="Path_86" data-name="Path 86" d="M278.235,6.218H2.415V20.847h275.82Z" transform="translate(24.048 61.908)" fill="#171796" fill-rule="evenodd"/>
    <path id="Path_87" data-name="Path 87" d="M12.077,43.273H76.213V28.666H12.077Z" transform="translate(120.261 285.441)" fill="#171796" fill-rule="evenodd"/>
    <path id="Path_88" data-name="Path 88" d="M4.189,39.178H241.306V24.549H4.189Z" transform="translate(41.713 244.444)" fill="#171796" fill-rule="evenodd"/>
    <path id="Path_89" data-name="Path 89" d="M6.793,41.182H186.831V26.564H6.793Z" transform="translate(67.644 264.509)" fill="#171796" fill-rule="evenodd"/>
    <path id="Path_90" data-name="Path 90" d="M2.415,37.1h275.82V22.449H2.415Z" transform="translate(24.048 223.533)" fill="#171796" fill-rule="evenodd"/>
    <path id="Path_91" data-name="Path 91" d="M16.834,10.114H2.194v107.1h14.64Z" transform="translate(21.848 100.703)" fill="#171796" fill-rule="evenodd"/>
    <path id="Path_92" data-name="Path 92" d="M19.01,117.216V10.114H4.392v107.1Z" transform="translate(43.735 100.703)" fill="#171796" fill-rule="evenodd"/>
    <path id="Path_93" data-name="Path 93" d="M21.215,117.216V10.114H6.586v107.1Z" transform="translate(65.582 100.703)" fill="#171796" fill-rule="evenodd"/>
    <path id="Path_94" data-name="Path 94" d="M23.42,117.216V10.114H8.78v107.1Z" transform="translate(87.43 100.703)" fill="#171796" fill-rule="evenodd"/>
    <path id="Path_95" data-name="Path 95" d="M0,76.316H14.629V12.07H0Z" transform="translate(0 120.181)" fill="#171796" fill-rule="evenodd"/>
    <path id="Path_96" data-name="Path 96" d="M26.471,117.216h14.64V10.114H26.471Z" transform="translate(263.594 100.703)" fill="#171796" fill-rule="evenodd"/>
    <path id="Path_97" data-name="Path 97" d="M24.274,10.114v107.1H38.9V10.114Z" transform="translate(241.717 100.703)" fill="#171796" fill-rule="evenodd"/>
    <path id="Path_98" data-name="Path 98" d="M22.082,10.114v107.1h14.6V10.114Z" transform="translate(219.889 100.703)" fill="#171796" fill-rule="evenodd"/>
    <path id="Path_99" data-name="Path 99" d="M19.885,10.114v107.1H34.5V10.114Z" transform="translate(198.012 100.703)" fill="#171796" fill-rule="evenodd"/>
    <path id="Path_100" data-name="Path 100" d="M43.3,12.07H28.664V76.316H43.3Z" transform="translate(285.432 120.181)" fill="#171796" fill-rule="evenodd"/>
  </g>
</svg>
